<?xml version="1.0" encoding="UTF-8"?>
<svg width="170px" height="170px" viewBox="0 0 170 170" version="1.1" xmlns="http://www.w3.org/2000/svg" xmlns:xlink="http://www.w3.org/1999/xlink">
    <!-- Generator: Sketch 49.3 (51167) - http://www.bohemiancoding.com/sketch -->
    <title>Are you sure</title>
    <desc>Created with Sketch.</desc>
    <defs></defs>
    <g id="Page-1" stroke="none" stroke-width="1" fill="none" fill-rule="evenodd">
        <g id="Are-you-sure" fill="#FF9D00">
            <path d="M75.765,103.33 L92.25,103.33 L92.25,119.5 L75.765,119.5 L75.765,103.33 Z M58.86,68.68 C58.9300004,64.8999811 59.5774939,61.4350158 60.8025,58.285 C62.0275061,55.1349842 63.742489,52.4050116 65.9475,50.095 C68.152511,47.7849885 70.8124844,45.9825065 73.9275,44.6875 C77.0425156,43.3924935 80.5249807,42.745 84.375,42.745 C89.3450249,42.745 93.4924834,43.4274932 96.8175,44.7925 C100.142517,46.1575068 102.81999,47.8549899 104.85,49.885 C106.88001,51.9150101 108.332496,54.1024883 109.2075,56.4475 C110.082504,58.7925117 110.52,60.9799899 110.52,63.01 C110.52,66.3700168 110.082504,69.1349892 109.2075,71.305 C108.332496,73.4750108 107.247506,75.3299923 105.9525,76.87 C104.657494,78.4100077 103.222508,79.7224946 101.6475,80.8075 C100.072492,81.8925054 98.585007,82.9774946 97.185,84.0625 C95.784993,85.1475054 94.5425054,86.389993 93.4575,87.79 C92.3724946,89.190007 91.6900014,90.9399895 91.41,93.04 L91.41,97.03 L77.235,97.03 L77.235,92.305 C77.445001,89.294985 78.0224953,86.7750102 78.9675,84.745 C79.9125047,82.7149898 81.0149937,80.9825072 82.275,79.5475 C83.5350063,78.1124928 84.864993,76.8700052 86.265,75.82 C87.665007,74.7699948 88.959994,73.7200052 90.15,72.67 C91.3400059,71.6199947 92.3024963,70.4650063 93.0375,69.205 C93.7725037,67.9449937 94.1050003,66.3700094 94.035,64.48 C94.035,61.2599839 93.2475079,58.8800077 91.6725,57.34 C90.0974921,55.7999923 87.910014,55.03 85.11,55.03 C83.2199905,55.03 81.5925068,55.3974963 80.2275,56.1325 C78.8624932,56.8675037 77.7425044,57.8474939 76.8675,59.0725 C75.9924956,60.2975061 75.3450021,61.7324918 74.925,63.3775 C74.5049979,65.0225082 74.295,66.7899905 74.295,68.68 L58.86,68.68 Z" id="?" fill-rule="evenodd"></path>
            <path d="M85,170 C38.0557963,170 0,131.944204 0,85 C0,38.0557963 38.0557963,0 85,0 C131.944204,0 170,38.0557963 170,85 C170,131.944204 131.944204,170 85,170 Z M85,155 C123.659932,155 155,123.659932 155,85 C155,46.3400675 123.659932,15 85,15 C46.3400675,15 15,46.3400675 15,85 C15,123.659932 46.3400675,155 85,155 Z" id="Oval" fill-rule="nonzero"></path>
        </g>
    </g>
</svg>