<?xml version="1.0" encoding="UTF-8"?>
<svg width="375px" height="181px" viewBox="0 0 375 181" version="1.1" xmlns="http://www.w3.org/2000/svg" xmlns:xlink="http://www.w3.org/1999/xlink">
    <!-- Generator: Sketch 48.2 (47327) - http://www.bohemiancoding.com/sketch -->
    <title>WeatherAppMobile</title>
    <desc>Created with Sketch.</desc>
    <defs>
        <rect id="path-1" x="0" y="0" width="375" height="181"></rect>
        <rect id="path-3" x="0" y="0" width="375" height="181"></rect>
        <rect id="path-5" x="0" y="0" width="375" height="181"></rect>
        <rect id="path-7" x="0" y="0" width="375" height="181"></rect>
        <rect id="path-9" x="0" y="0" width="375" height="181"></rect>
    </defs>
    <g id="Page-1" stroke="none" stroke-width="1" fill="none" fill-rule="evenodd">
        <g id="WeatherAppMobile">
            <g id="Group">
                <g id="Rectangle" fill="#FFFFFF" fill-rule="nonzero">
                    <rect id="path-1" x="0" y="0" width="375" height="181"></rect>
                </g>
                <g id="Group-3-Clipped">
                    <mask id="mask-2" fill="white">
                        <use xlink:href="#path-1"></use>
                    </mask>
                    <g id="path-1"></g>
                    <g id="Group-3" mask="url(#mask-2)">
                        <g transform="translate(19.000000, 23.000000)" id="Group">
                            <g>
                                <circle id="Oval-2" fill="#EFEFEF" fill-rule="nonzero" cx="36.5" cy="21.5" r="21.5"></circle>
                                <circle id="Oval-2" fill="#EFEFEF" fill-rule="nonzero" cx="13" cy="29" r="13"></circle>
                                <circle id="Oval-2-Copy" fill="#EFEFEF" fill-rule="nonzero" cx="57.5" cy="28.5" r="13.5"></circle>
                                <circle id="Oval-2-Copy" fill="#EFEFEF" fill-rule="nonzero" cx="69.5" cy="30.5" r="8.5"></circle>
                            </g>
                        </g>
                    </g>
                </g>
                <g id="Group-4-Clipped">
                    <mask id="mask-4" fill="white">
                        <use xlink:href="#path-3"></use>
                    </mask>
                    <g id="path-1"></g>
                    <g id="Group-4" mask="url(#mask-4)">
                        <g transform="translate(109.000000, 52.000000)" id="Group">
                            <g>
                                <circle id="Oval-2-Copy-19" fill="#EFEFEF" fill-rule="nonzero" cx="41.5" cy="21.5" r="21.5"></circle>
                                <circle id="Oval-2-Copy-20" fill="#EFEFEF" fill-rule="nonzero" cx="64" cy="32" r="14"></circle>
                                <circle id="Oval-2-Copy-22" fill="#EFEFEF" fill-rule="nonzero" cx="47.5" cy="40.5" r="12.5"></circle>
                                <circle id="Oval-2-Copy-23" fill="#EFEFEF" fill-rule="nonzero" cx="32.5" cy="35.5" r="14.5"></circle>
                                <circle id="Oval-2-Copy-24" fill="#EFEFEF" fill-rule="nonzero" cx="14.5" cy="35.5" r="14.5"></circle>
                                <circle id="Oval-2-Copy-25" fill="#EFEFEF" fill-rule="nonzero" cx="20.5" cy="18.5" r="8.5"></circle>
                            </g>
                        </g>
                    </g>
                </g>
                <g id="Group-5-Clipped">
                    <mask id="mask-6" fill="white">
                        <use xlink:href="#path-5"></use>
                    </mask>
                    <g id="path-1"></g>
                    <g id="Group-5" mask="url(#mask-6)">
                        <g transform="translate(240.000000, 44.000000)" id="Group">
                            <g>
                                <circle id="Oval-2-Copy-2" fill="#EFEFEF" fill-rule="nonzero" cx="48.5" cy="21.5" r="21.5"></circle>
                                <circle id="Oval-2-Copy-3" fill="#EFEFEF" fill-rule="nonzero" cx="71" cy="32" r="14"></circle>
                                <circle id="Oval-2-Copy-4" fill="#EFEFEF" fill-rule="nonzero" cx="63.5" cy="45.5" r="8.5"></circle>
                                <circle id="Oval-2-Copy-4" fill="#EFEFEF" fill-rule="nonzero" cx="51" cy="43" r="11"></circle>
                                <circle id="Oval-2-Copy-4" fill="#EFEFEF" fill-rule="nonzero" cx="32.5" cy="39.5" r="14.5"></circle>
                                <circle id="Oval-2-Copy-4" fill="#EFEFEF" fill-rule="nonzero" cx="14.5" cy="32.5" r="14.5"></circle>
                                <circle id="Oval-2-Copy-4" fill="#EFEFEF" fill-rule="nonzero" cx="27.5" cy="18.5" r="8.5"></circle>
                            </g>
                        </g>
                    </g>
                </g>
                <g id="Group-6-Clipped">
                    <mask id="mask-8" fill="white">
                        <use xlink:href="#path-7"></use>
                    </mask>
                    <g id="path-1"></g>
                    <g id="Group-6" mask="url(#mask-8)">
                        <g transform="translate(325.000000, 115.000000)" id="Group">
                            <g>
                                <circle id="Oval-2-Copy-16" fill="#EFEFEF" fill-rule="nonzero" cx="43.5" cy="21.5" r="21.5"></circle>
                                <circle id="Oval-2-Copy-17" fill="#EFEFEF" fill-rule="nonzero" cx="63" cy="25" r="14"></circle>
                                <circle id="Oval-2-Copy-18" fill="#EFEFEF" fill-rule="nonzero" cx="11" cy="24" r="11"></circle>
                                <circle id="Oval-2-Copy-15" fill="#EFEFEF" fill-rule="nonzero" cx="24" cy="22" r="15"></circle>
                            </g>
                        </g>
                    </g>
                </g>
                <g id="Group-7-Clipped">
                    <mask id="mask-10" fill="white">
                        <use xlink:href="#path-9"></use>
                    </mask>
                    <g id="path-1"></g>
                    <g id="Group-7" mask="url(#mask-10)">
                        <g transform="translate(-15.000000, 116.000000)" id="Group">
                            <g>
                                <circle id="Oval-2-Copy-5" fill="#EFEFEF" fill-rule="nonzero" cx="36.5" cy="21.5" r="21.5"></circle>
                                <circle id="Oval-2-Copy-8" fill="#EFEFEF" fill-rule="nonzero" cx="68.5" cy="33.5" r="11.5"></circle>
                                <circle id="Oval-2-Copy-9" fill="#EFEFEF" fill-rule="nonzero" cx="54" cy="34" r="11"></circle>
                                <circle id="Oval-2-Copy-7" fill="#EFEFEF" fill-rule="nonzero" cx="57.5" cy="17.5" r="14.5"></circle>
                                <circle id="Oval-2-Copy-6" fill="#EFEFEF" fill-rule="nonzero" cx="14.5" cy="28.5" r="14.5"></circle>
                            </g>
                        </g>
                    </g>
                </g>
            </g>
            <g id="Group-10" transform="translate(199.000000, 110.000000)" fill="#EFEFEF">
                <circle id="Oval-2-Copy-14" cx="36.5" cy="33.5" r="21.5"></circle>
                <circle id="Oval-2-Copy-11" cx="14" cy="22" r="14"></circle>
                <circle id="Oval-2-Copy-12" cx="25" cy="11" r="11"></circle>
            </g>
            <g id="phone" transform="translate(138.000000, 0.000000)">
                <ellipse id="Oval-2-Copy-4" fill="#EFEFEF" transform="translate(40.882550, 8.396907) rotate(180.000000) translate(-40.882550, -8.396907) " cx="40.8825497" cy="8.39690678" rx="5.30536913" ry="5.28694158"></ellipse>
                <ellipse id="Oval-2-Copy-4" fill="#EFEFEF" transform="translate(48.684564, 6.841924) rotate(180.000000) translate(-48.684564, -6.841924) " cx="48.6845642" cy="6.8419236" rx="6.86577181" ry="6.8419244"></ellipse>
                <path d="M80.4005126,4.35395189 L12.3362531,4.35395189 C5.52495683,4.35395189 0,9.04076279 0,14.8241799 L0,170.132999 C0,175.915104 5.52352438,180.601915 12.3362531,180.601915 L80.4019451,180.601915 C87.2146738,180.601915 92.7381982,175.915104 92.7381982,170.132999 L92.7381982,14.8241799 C92.7367657,9.04076279 87.2132413,4.35395189 80.4005126,4.35395189 Z M47.2822854,172.622899 C43.5207071,172.622899 40.470989,169.583774 40.470989,165.835261 C40.470989,162.08804 43.5207071,159.047622 47.2822854,159.047622 C51.0438638,159.047622 54.0935819,162.08804 54.0935819,165.835261 C54.0935819,169.583774 51.0438638,172.622899 47.2822854,172.622899 Z" id="Shape" fill="#000C14" fill-rule="nonzero"></path>
                <rect id="Rectangle-3" fill="#FFFFFF" x="3.74496644" y="24.8797251" width="85.5100671" height="129.37457" rx="2"></rect>
                <g id="Group-2" opacity="0.845561594" transform="translate(34.328859, 42.917526)" fill-rule="nonzero">
                    <g id="Group">
                        <polygon id="Shape" fill="#FF9D00" points="21.5340464 0.357971181 18.2736701 10.0724507 24.7934439 10.0724507"></polygon>
                        <polygon id="Shape" fill="#FF9D00" points="16.2641978 10.8010732 7.50052944 5.44808728 11.2689019 14.9782165"></polygon>
                        <polygon id="Shape" fill="#FF9D00" points="10.1995651 16.8236701 0.0332791336 18.3365129 9.06758511 23.2232584"></polygon>
                        <polygon id="Shape" fill="#E88D00" points="2.62611516 32.9933356 12.6989259 30.9493885 9.43806017 25.3218279"></polygon>
                        <polygon id="Shape" fill="#E88D00" points="14.0663067 42.5595546 20.4642202 34.5412928 14.336455 32.3198231"></polygon>
                        <polygon id="Shape" fill="#E88D00" points="22.6024045 34.5417805 29.000318 42.5590669 28.7296803 32.3193354"></polygon>
                        <polygon id="Shape" fill="#FF9D00" points="30.3686776 30.9493885 40.4409989 32.9928479 33.6280751 25.3218279"></polygon>
                        <polygon id="Shape" fill="#FF9D00" points="34.0005078 23.2237461 43.033835 18.3365129 32.867549 16.8246455"></polygon>
                        <polygon id="Shape" fill="#FF9D00" points="35.5665847 5.44759958 26.8034057 10.8015609 31.7987016 14.9782165"></polygon>
                    </g>
                    <ellipse id="Oval" fill="#FFD500" cx="21.533557" cy="22.080756" rx="10.2986577" ry="10.2628866"></ellipse>
                </g>
                <path d="M65.2189135,78.402866 C68.2031641,78.7109635 70.5302013,81.2247057 70.5302013,84.2800687 C70.5302013,87.5434833 67.8754602,90.1890034 64.6006711,90.1890034 C63.8109894,90.1890034 63.0573625,90.0351708 62.3683205,89.7559366 C60.886359,90.8117124 59.0713551,91.4329897 57.1107383,91.4329897 C54.8053317,91.4329897 52.7012555,90.5739859 51.1032309,89.1596412 C48.6959553,90.9768639 45.6957971,92.0549828 42.442953,92.0549828 C38.7863431,92.0549828 35.4490425,90.6926054 32.9143063,88.4494269 C31.3418405,89.9113763 29.1997129,90.8109966 26.8389262,90.8109966 C22.0129212,90.8109966 18.1006711,87.0515731 18.1006711,82.4140893 C18.1006711,77.7766055 22.0129212,74.0171821 26.8389262,74.0171821 C27.4205293,74.0171821 27.9888614,74.071783 28.538674,74.1759413 C30.1311724,68.0040799 35.7525926,63.443299 42.442953,63.443299 C48.8669648,63.443299 54.3054528,67.6481714 56.1380665,73.4466671 C56.4576117,73.4126415 56.7821297,73.395189 57.1107383,73.395189 C60.6630969,73.395189 63.7374336,75.4347355 65.2189135,78.402866 Z" id="Combined-Shape" stroke="#A6A6A6" stroke-width="2" fill="#FFFFFF"></path>
            </g>
            <g id="19" transform="translate(154.000000, 115.000000)" fill="#A6A6A6">
                <path d="M4.325,7.05 L0.65,7.05 L0.65,4.2 C1.80000575,4.1666665 2.7916625,3.87083613 3.625,3.3125 C4.4583375,2.75416388 4.98333225,1.8916725 5.2,0.725 L8.55,0.725 L8.55,18 L4.325,18 L4.325,7.05 Z M17.7,18.4 C16.766662,18.4 15.9291704,18.2875011 15.1875,18.0625 C14.4458296,17.8374989 13.8000027,17.5208354 13.25,17.1125 C12.6999972,16.7041646 12.2500017,16.2125029 11.9,15.6375 C11.5499982,15.0624971 11.3166672,14.4333368 11.2,13.75 L15.2,13.75 C15.333334,14.1833355 15.5874981,14.5624984 15.9625,14.8875 C16.3375019,15.2125016 16.8833297,15.375 17.6,15.375 C18.5833382,15.375 19.3249975,15.0500033 19.825,14.4 C20.425003,13.6833298 20.7499997,12.5500078 20.8,11 L20.75,11 C20.3166645,11.4833358 19.7958364,11.8833318 19.1875,12.2 C18.5791636,12.5166683 17.8250045,12.675 16.925,12.675 C16.058329,12.675 15.2458371,12.5333348 14.4875,12.25 C13.7291629,11.9666653 13.0666695,11.5625026 12.5,11.0375 C11.9333305,10.5124974 11.4875016,9.87500375 11.1625,9.125 C10.8374984,8.37499625 10.675,7.54167125 10.675,6.625 C10.675,5.70832875 10.8458316,4.87500375 11.1875,4.125 C11.5291684,3.37499625 12.0083302,2.733336 12.625,2.2 C13.2416697,1.666664 13.9708291,1.25416813 14.8125,0.9625 C15.6541709,0.670831875 16.574995,0.525 17.575,0.525 C18.641672,0.525 19.6166622,0.691665 20.5,1.025 C21.3833377,1.358335 22.124997,1.83333025 22.725,2.45 C24.2250075,3.90000725 24.975,6.191651 24.975,9.325 C24.975,10.65834 24.8333347,11.8999943 24.55,13.05 C24.2666652,14.2000058 23.8166697,15.174996 23.2,15.975 C22.5833302,16.775004 21.8250045,17.3791646 20.925,17.7875 C20.0249955,18.1958354 18.9500062,18.4 17.7,18.4 Z M17.675,9.575 C18.5583377,9.575 19.2874971,9.30000275 19.8625,8.75 C20.4375029,8.19999725 20.725,7.491671 20.725,6.625 C20.725,5.758329 20.4416695,5.04583613 19.875,4.4875 C19.3083305,3.92916388 18.5750045,3.65 17.675,3.65 C16.7749955,3.65 16.0500028,3.92916388 15.5,4.4875 C14.9499972,5.04583613 14.675,5.74999575 14.675,6.6 C14.675,7.45000425 14.941664,8.1583305 15.475,8.725 C16.008336,9.2916695 16.741662,9.575 17.675,9.575 Z"></path>
            </g>
            <g id="8" transform="translate(193.000000, 115.000000)" fill="#A6A6A6">
                <path d="M7.375,18.375 C6.59166275,18.375 5.80833725,18.2833343 5.025,18.1 C4.24166275,17.9166658 3.53750312,17.6166688 2.9125,17.2 C2.28749687,16.7833313 1.78333525,16.2375034 1.4,15.5625 C1.01666475,14.8874966 0.825,14.0666715 0.825,13.1 C0.825,12.4833303 0.91666575,11.9333358 1.1,11.45 C1.28333425,10.9666643 1.53749837,10.5458351 1.8625,10.1875 C2.18750162,9.82916488 2.56249788,9.52083463 2.9875,9.2625 C3.41250213,9.00416538 3.86666425,8.80000075 4.35,8.65 L4.35,8.575 C3.549996,8.2749985 2.90416913,7.81666975 2.4125,7.2 C1.92083088,6.58333025 1.675,5.8250045 1.675,4.925 C1.675,4.24166325 1.82083188,3.62500275 2.1125,3.075 C2.40416812,2.52499725 2.80416412,2.05416863 3.3125,1.6625 C3.82083588,1.27083138 4.41666325,0.970834375 5.1,0.7625 C5.78333675,0.554165625 6.51666275,0.45 7.3,0.45 C8.08333725,0.45 8.81666325,0.554165625 9.5,0.7625 C10.1833368,0.970834375 10.7791641,1.27083138 11.2875,1.6625 C11.7958359,2.05416863 12.1958319,2.52499725 12.4875,3.075 C12.7791681,3.62500275 12.925,4.24166325 12.925,4.925 C12.925,5.8250045 12.6875024,6.57916363 12.2125,7.1875 C11.7374976,7.79583638 11.100004,8.25833175 10.3,8.575 L10.3,8.65 C10.7833358,8.80000075 11.2374979,9.00416538 11.6625,9.2625 C12.0875021,9.52083463 12.4541651,9.83749813 12.7625,10.2125 C13.0708349,10.5875019 13.3166658,11.0166643 13.5,11.5 C13.6833342,11.9833358 13.775,12.5166638 13.775,13.1 C13.775,14.0833383 13.5875019,14.90833 13.2125,15.575 C12.8374981,16.24167 12.350003,16.7833313 11.75,17.2 C11.149997,17.6166688 10.4666705,17.9166658 9.7,18.1 C8.9333295,18.2833343 8.15833725,18.375 7.375,18.375 Z M7.375,16.625 C8.72500675,16.625 9.77916288,16.3125031 10.5375,15.6875 C11.2958371,15.0624969 11.675,14.2000055 11.675,13.1 C11.675,11.966661 11.2916705,11.0750033 10.525,10.425 C9.7583295,9.77499675 8.68334025,9.45 7.3,9.45 C5.94999325,9.45 4.8916705,9.77499675 4.125,10.425 C3.3583295,11.0750033 2.975,11.966661 2.975,13.1 C2.975,14.2166723 3.36249612,15.0833303 4.1375,15.7 C4.91250387,16.3166698 5.99165975,16.625 7.375,16.625 Z M7.3,7.8 C8.4000055,7.8 9.27083012,7.55416913 9.9125,7.0625 C10.5541699,6.57083088 10.875,5.88333775 10.875,5 C10.875,4.11666225 10.5541699,3.42916913 9.9125,2.9375 C9.27083012,2.44583088 8.4000055,2.2 7.3,2.2 C6.1999945,2.2 5.32916988,2.44583088 4.6875,2.9375 C4.04583012,3.42916913 3.725,4.11666225 3.725,5 C3.725,5.88333775 4.04583012,6.57083088 4.6875,7.0625 C5.32916988,7.55416913 6.1999945,7.8 7.3,7.8 Z"></path>
            </g>
            <circle id="Oval-3" stroke="#A6A6A6" stroke-width="2" cx="184.5" cy="118.5" r="2.5"></circle>
            <circle id="Oval-3-Copy" stroke="#A6A6A6" cx="211.5" cy="118.5" r="2.5"></circle>
        </g>
    </g>
</svg>