<?xml version="1.0" encoding="UTF-8"?>
<svg width="15px" height="15px" viewBox="0 0 15 15" version="1.1" xmlns="http://www.w3.org/2000/svg" xmlns:xlink="http://www.w3.org/1999/xlink">
    <!-- Generator: Sketch 48.2 (47327) - http://www.bohemiancoding.com/sketch -->
    <title>Group 2 Copy 3</title>
    <desc>Created with Sketch.</desc>
    <defs></defs>
    <g id="05" stroke="none" stroke-width="1" fill="none" fill-rule="evenodd" transform="translate(-598.000000, -526.000000)">
        <g id="Group-2-Copy-3" transform="translate(598.000000, 526.000000)" fill="#006CB7">
            <path d="M7.5,14.0625 C3.88125,14.0625 0.9375,11.11875 0.9375,7.5 C0.9375,3.88125 3.88125,0.9375 7.5,0.9375 C11.11875,0.9375 14.0625,3.88125 14.0625,7.5 C14.0625,11.11875 11.11875,14.0625 7.5,14.0625 M7.5,0 C3.358125,0 0,3.358125 0,7.5 C0,11.641875 3.358125,15 7.5,15 C11.641875,15 15,11.641875 15,7.5 C15,3.358125 11.641875,0 7.5,0" id="incorrectstatus-icon"></path>
            <path d="M6.72070307,9.18164038 L6.72070307,8.80664039 C6.72070307,8.37695076 6.79882729,8.01953247 6.95507806,7.7343748 C7.11132884,7.44921713 7.3847636,7.15429822 7.77539054,6.8496092 C8.2402366,6.48241988 8.54003828,6.19726649 8.67480457,5.99414048 C8.80957086,5.79101447 8.876953,5.5488294 8.876953,5.26757801 C8.876953,4.93945138 8.7675791,4.68750078 8.54882801,4.51171866 C8.33007693,4.33593653 8.01562696,4.24804679 7.60546867,4.24804679 C7.23437307,4.24804679 6.89062652,4.30078064 6.5742187,4.40624991 C6.25781088,4.51171919 5.94922023,4.63867104 5.64843748,4.78710927 L5.15625,3.75585931 C5.94922269,3.31445087 6.79882354,3.09374996 7.70507804,3.09374996 C8.47070684,3.09374996 9.07812262,3.28124807 9.5273436,3.65624994 C9.97656458,4.0312518 10.2011717,4.54882473 10.2011717,5.20898426 C10.2011717,5.50195446 10.1582034,5.76269404 10.0722655,5.9912108 C9.98632753,6.21972756 9.85644602,6.43749881 9.68261704,6.64453109 C9.50878805,6.85156336 9.20898637,7.12109191 8.783203,7.45312481 C8.41991995,7.73828248 8.17675833,7.97460823 8.05371084,8.16210916 C7.93066335,8.34961009 7.86914053,8.60156069 7.86914053,8.91796851 L7.86914053,9.18164038 L6.72070307,9.18164038 Z M6.48046871,11.0507809 C6.48046871,10.4609343 6.7675752,10.1660153 7.3417968,10.1660153 C7.6230482,10.1660153 7.83788979,10.243163 7.98632803,10.3974606 C8.13476627,10.5517583 8.20898427,10.7695295 8.20898427,11.0507809 C8.20898427,11.3281261 8.13378971,11.5478504 7.98339834,11.7099606 C7.83300697,11.8720708 7.61914193,11.9531247 7.3417968,11.9531247 C7.06445167,11.9531247 6.85156319,11.8740239 6.70312495,11.71582 C6.55468671,11.5576161 6.48046871,11.3359386 6.48046871,11.0507809 L6.48046871,11.0507809 Z" id="?"></path>
        </g>
    </g>
</svg>