<?xml version="1.0" encoding="UTF-8"?>
<svg width="352px" height="353px" viewBox="0 0 352 353" version="1.1" xmlns="http://www.w3.org/2000/svg" xmlns:xlink="http://www.w3.org/1999/xlink">
    <!-- Generator: Sketch 48.2 (47327) - http://www.bohemiancoding.com/sketch -->
    <title>WeatherApp</title>
    <desc>Created with Sketch.</desc>
    <defs></defs>
    <g id="Page-1" stroke="none" stroke-width="1" fill="none" fill-rule="evenodd">
        <g id="WeatherApp">
            <circle id="Oval-2" fill="#EFEFEF" cx="36.5" cy="195.5" r="21.5"></circle>
            <circle id="Oval-2-Copy-2" fill="#EFEFEF" cx="309.5" cy="320.5" r="21.5"></circle>
            <circle id="Oval-2-Copy-27" fill="#EFEFEF" cx="260.5" cy="172.5" r="21.5"></circle>
            <circle id="Oval-2-Copy-19" fill="#EFEFEF" cx="74.5" cy="21.5" r="21.5"></circle>
            <circle id="Oval-2-Copy-16" fill="#EFEFEF" cx="318.5" cy="64.5" r="21.5"></circle>
            <circle id="Oval-2-Copy-14" fill="#EFEFEF" cx="101.5" cy="143.5" r="21.5"></circle>
            <circle id="Oval-2-Copy-5" fill="#EFEFEF" cx="65.5" cy="302.5" r="21.5"></circle>
            <circle id="Oval-2-Copy-3" fill="#EFEFEF" cx="332" cy="331" r="14"></circle>
            <circle id="Oval-2-Copy-20" fill="#EFEFEF" cx="97" cy="32" r="14"></circle>
            <circle id="Oval-2-Copy-17" fill="#EFEFEF" cx="338" cy="68" r="14"></circle>
            <circle id="Oval-2-Copy-10" fill="#EFEFEF" cx="268" cy="156" r="14"></circle>
            <circle id="Oval-2-Copy-11" fill="#EFEFEF" cx="79" cy="132" r="14"></circle>
            <circle id="Oval-2-Copy-8" fill="#EFEFEF" cx="97.5" cy="314.5" r="11.5"></circle>
            <circle id="Oval-2-Copy-4" fill="#EFEFEF" cx="324.5" cy="344.5" r="8.5"></circle>
            <circle id="Oval-2-Copy-26" fill="#EFEFEF" cx="283.5" cy="156.5" r="8.5"></circle>
            <circle id="Oval-2-Copy-4" fill="#EFEFEF" cx="312" cy="342" r="11"></circle>
            <circle id="Oval-2-Copy-22" fill="#EFEFEF" cx="80.5" cy="40.5" r="12.5"></circle>
            <circle id="Oval-2-Copy-18" fill="#EFEFEF" cx="286" cy="67" r="11"></circle>
            <circle id="Oval-2-Copy-12" fill="#EFEFEF" cx="90" cy="121" r="11"></circle>
            <circle id="Oval-2-Copy-9" fill="#EFEFEF" cx="83" cy="315" r="11"></circle>
            <circle id="Oval-2-Copy-4" fill="#EFEFEF" cx="293.5" cy="338.5" r="14.5"></circle>
            <circle id="Oval-2-Copy-21" fill="#EFEFEF" cx="293.5" cy="170.5" r="14.5"></circle>
            <circle id="Oval-2-Copy-23" fill="#EFEFEF" cx="65.5" cy="35.5" r="14.5"></circle>
            <circle id="Oval-2-Copy-13" fill="#EFEFEF" cx="282.5" cy="179.5" r="14.5"></circle>
            <circle id="Oval-2-Copy-7" fill="#EFEFEF" cx="86.5" cy="298.5" r="14.5"></circle>
            <circle id="Oval-2-Copy-4" fill="#EFEFEF" cx="275.5" cy="331.5" r="14.5"></circle>
            <circle id="Oval-2-Copy-24" fill="#EFEFEF" cx="47.5" cy="35.5" r="14.5"></circle>
            <circle id="Oval-2-Copy-15" fill="#EFEFEF" cx="299" cy="65" r="15"></circle>
            <circle id="Oval-2-Copy-6" fill="#EFEFEF" cx="43.5" cy="309.5" r="14.5"></circle>
            <circle id="Oval-2-Copy-4" fill="#EFEFEF" cx="288.5" cy="317.5" r="8.5"></circle>
            <circle id="Oval-2-Copy-25" fill="#EFEFEF" cx="53.5" cy="18.5" r="8.5"></circle>
            <circle id="Oval-2-Copy-2" fill="#EFEFEF" transform="translate(183.500000, 31.500000) rotate(180.000000) translate(-183.500000, -31.500000) " cx="183.5" cy="31.5" r="21.5"></circle>
            <circle id="Oval-2-Copy-3" fill="#EFEFEF" transform="translate(161.000000, 42.000000) rotate(180.000000) translate(-161.000000, -42.000000) " cx="161" cy="42" r="14"></circle>
            <circle id="Oval-2-Copy-4" fill="#EFEFEF" transform="translate(168.500000, 55.500000) rotate(180.000000) translate(-168.500000, -55.500000) " cx="168.5" cy="55.5" r="8.5"></circle>
            <circle id="Oval-2-Copy-4" fill="#EFEFEF" transform="translate(181.000000, 53.000000) rotate(180.000000) translate(-181.000000, -53.000000) " cx="181" cy="53" r="11"></circle>
            <circle id="Oval-2-Copy-4" fill="#EFEFEF" transform="translate(199.500000, 49.500000) rotate(180.000000) translate(-199.500000, -49.500000) " cx="199.5" cy="49.5" r="14.5"></circle>
            <circle id="Oval-2-Copy-4" fill="#EFEFEF" transform="translate(217.500000, 42.500000) rotate(180.000000) translate(-217.500000, -42.500000) " cx="217.5" cy="42.5" r="14.5"></circle>
            <circle id="Oval-2-Copy-4" fill="#EFEFEF" transform="translate(204.500000, 28.500000) rotate(180.000000) translate(-204.500000, -28.500000) " cx="204.5" cy="28.5" r="8.5"></circle>
            <circle id="Oval-2" fill="#EFEFEF" cx="13" cy="203" r="13"></circle>
            <circle id="Oval-2-Copy" fill="#EFEFEF" cx="57.5" cy="202.5" r="13.5"></circle>
            <circle id="Oval-2-Copy" fill="#EFEFEF" cx="69.5" cy="204.5" r="8.5"></circle>
            <path d="M232.177368,49 L122.82033,49 C111.876801,49 103,56.5255762 103,65.8119646 L103,315.190142 C103,324.474424 111.8745,332 122.82033,332 L232.17967,332 C243.1255,332 252,324.474424 252,315.190142 L252,65.8119646 C251.997699,56.5255762 243.123199,49 232.177368,49 Z M178.967192,319.188155 C172.923564,319.188155 168.023663,314.308255 168.023663,308.289296 C168.023663,302.272413 172.923564,297.390438 178.967192,297.390438 C185.01082,297.390438 189.910721,302.272413 189.910721,308.289296 C189.910721,314.308255 185.01082,319.188155 178.967192,319.188155 Z" id="Shape" fill="#000C14" fill-rule="nonzero"></path>
            <rect id="Rectangle-3" fill="#FFFFFF" x="109" y="82" width="137" height="208" rx="2"></rect>
            <g id="19" transform="translate(141.000000, 219.000000)" fill="#A6A6A6">
                <path d="M5.19,7.86 L0.78,7.86 L0.78,4.44 C2.1600069,4.3999998 3.349995,4.04500335 4.35,3.375 C5.350005,2.70499665 5.9799987,1.670007 6.24,0.27 L10.26,0.27 L10.26,21 L5.19,21 L5.19,7.86 Z M21.24,21.48 C20.1199944,21.48 19.1150045,21.3450014 18.225,21.075 C17.3349956,20.8049987 16.5600033,20.4250025 15.9,19.935 C15.2399967,19.4449976 14.7000021,18.8550034 14.28,18.165 C13.8599979,17.4749966 13.5800007,16.7200041 13.44,15.9 L18.24,15.9 C18.4000008,16.4200026 18.7049978,16.8749981 19.155,17.265 C19.6050023,17.6550019 20.2599957,17.85 21.12,17.85 C22.3000059,17.85 23.189997,17.4600039 23.79,16.68 C24.5100036,15.8199957 24.8999997,14.4600093 24.96,12.6 L24.9,12.6 C24.3799974,13.1800029 23.7550036,13.6599981 23.025,14.04 C22.2949964,14.4200019 21.3900054,14.61 20.31,14.61 C19.2699948,14.61 18.2950046,14.4400017 17.385,14.1 C16.4749955,13.7599983 15.6800034,13.2750032 15,12.645 C14.3199966,12.0149969 13.785002,11.2500045 13.395,10.35 C13.0049981,9.4499955 12.81,8.4500055 12.81,7.35 C12.81,6.2499945 13.014998,5.2500045 13.425,4.35 C13.8350021,3.4499955 14.4099963,2.6800032 15.15,2.04 C15.8900037,1.3999968 16.764995,0.90500175 17.775,0.555 C18.7850051,0.20499825 19.889994,0.03 21.09,0.03 C22.3700064,0.03 23.5399947,0.229998 24.6,0.63 C25.6600053,1.030002 26.5499964,1.5999963 27.27,2.34 C29.070009,4.0800087 29.97,6.8299812 29.97,10.59 C29.97,12.190008 29.8000017,13.6799931 29.46,15.06 C29.1199983,16.4400069 28.5800037,17.6099952 27.84,18.57 C27.0999963,19.5300048 26.1900054,20.2549975 25.11,20.745 C24.0299946,21.2350024 22.7400075,21.48 21.24,21.48 Z M21.21,10.89 C22.2700053,10.89 23.1449965,10.5600033 23.835,9.9 C24.5250034,9.2399967 24.87,8.3900052 24.87,7.35 C24.87,6.3099948 24.5300034,5.45500335 23.85,4.785 C23.1699966,4.11499665 22.2900054,3.78 21.21,3.78 C20.1299946,3.78 19.2600033,4.11499665 18.6,4.785 C17.9399967,5.45500335 17.61,6.2999949 17.61,7.32 C17.61,8.3400051 17.9299968,9.1899966 18.57,9.87 C19.2100032,10.5500034 20.0899944,10.89 21.21,10.89 Z"></path>
            </g>
            <g id="8" transform="translate(192.000000, 218.000000)" fill="#A6A6A6">
                <path d="M8.85,22.45 C7.9099953,22.45 6.9700047,22.3400011 6.03,22.12 C5.0899953,21.8999989 4.24500375,21.5400025 3.495,21.04 C2.74499625,20.5399975 2.1400023,19.885004 1.68,19.075 C1.2199977,18.2649959 0.99,17.2800058 0.99,16.12 C0.99,15.3799963 1.0999989,14.7200029 1.32,14.14 C1.5400011,13.5599971 1.84499805,13.0550021 2.235,12.625 C2.62500195,12.1949978 3.07499745,11.8250015 3.585,11.515 C4.09500255,11.2049984 4.6399971,10.9600009 5.22,10.78 L5.22,10.69 C4.2599952,10.3299982 3.48500295,9.7800037 2.895,9.04 C2.30499705,8.2999963 2.01,7.3900054 2.01,6.31 C2.01,5.4899959 2.18499825,4.7500033 2.535,4.09 C2.88500175,3.4299967 3.36499695,2.86500235 3.975,2.395 C4.58500305,1.92499765 5.2999959,1.56500125 6.12,1.315 C6.9400041,1.06499875 7.8199953,0.94 8.76,0.94 C9.7000047,0.94 10.5799959,1.06499875 11.4,1.315 C12.2200041,1.56500125 12.934997,1.92499765 13.545,2.395 C14.155003,2.86500235 14.6349982,3.4299967 14.985,4.09 C15.3350017,4.7500033 15.51,5.4899959 15.51,6.31 C15.51,7.3900054 15.2250028,8.29499635 14.655,9.025 C14.0849971,9.75500365 13.3200048,10.3099981 12.36,10.69 L12.36,10.78 C12.9400029,10.9600009 13.4849974,11.2049984 13.995,11.515 C14.5050026,11.8250015 14.9449981,12.2049977 15.315,12.655 C15.6850018,13.1050022 15.9799989,13.6199971 16.2,14.2 C16.4200011,14.7800029 16.53,15.4199965 16.53,16.12 C16.53,17.3000059 16.3050023,18.289996 15.855,19.09 C15.4049977,19.890004 14.8200036,20.5399975 14.1,21.04 C13.3799964,21.5400025 12.5600046,21.8999989 11.64,22.12 C10.7199954,22.3400011 9.7900047,22.45 8.85,22.45 Z M8.85,20.35 C10.4700081,20.35 11.7349955,19.9750037 12.645,19.225 C13.5550046,18.4749962 14.01,17.4400066 14.01,16.12 C14.01,14.7599932 13.5500046,13.6900039 12.63,12.91 C11.7099954,12.1299961 10.4200083,11.74 8.76,11.74 C7.1399919,11.74 5.8700046,12.1299961 4.95,12.91 C4.0299954,13.6900039 3.57,14.7599932 3.57,16.12 C3.57,17.4600067 4.03499535,18.4999963 4.965,19.24 C5.89500465,19.9800037 7.1899917,20.35 8.85,20.35 Z M8.76,9.76 C10.0800066,9.76 11.1249962,9.46500295 11.895,8.875 C12.6650038,8.28499705 13.05,7.4600053 13.05,6.4 C13.05,5.3399947 12.6650038,4.51500295 11.895,3.925 C11.1249962,3.33499705 10.0800066,3.04 8.76,3.04 C7.4399934,3.04 6.39500385,3.33499705 5.625,3.925 C4.85499615,4.51500295 4.47,5.3399947 4.47,6.4 C4.47,7.4600053 4.85499615,8.28499705 5.625,8.875 C6.39500385,9.46500295 7.4399934,9.76 8.76,9.76 Z"></path>
            </g>
            <circle id="Oval-3" stroke="#A6A6A6" stroke-width="2" cx="178" cy="222" r="3"></circle>
            <circle id="Oval-3-Copy" stroke="#A6A6A6" cx="213.5" cy="221.5" r="2.5"></circle>
            <g id="Group-2" opacity="0.845561594" transform="translate(158.000000, 111.000000)" fill-rule="nonzero">
                <g id="Group">
                    <polygon id="Shape" fill="#FF9D00" points="34.5007841 0.575522727 29.2771705 16.1938295 39.7228295 16.1938295"></polygon>
                    <polygon id="Shape" fill="#FF9D00" points="26.0576932 17.3652614 12.0169773 8.75907955 18.0544773 24.081"></polygon>
                    <polygon id="Shape" fill="#FF9D00" points="16.3412386 27.048 0.0533181818 29.48025 14.5276364 37.3368409"></polygon>
                    <polygon id="Shape" fill="#E88D00" points="4.20743182 53.0445341 20.3455909 49.7584091 15.1211932 40.7107841"></polygon>
                    <polygon id="Shape" fill="#E88D00" points="22.5363409 68.4244773 32.7867614 55.5332386 22.9691591 51.9617045"></polygon>
                    <polygon id="Shape" fill="#E88D00" points="36.2124545 55.5340227 46.462875 68.4236932 46.0292727 51.9609205"></polygon>
                    <polygon id="Shape" fill="#FF9D00" points="48.6551932 49.7584091 64.7925682 53.04375 53.8772386 40.7107841"></polygon>
                    <polygon id="Shape" fill="#FF9D00" points="54.4739318 37.337625 68.9466818 29.48025 52.6587614 27.0495682"></polygon>
                    <polygon id="Shape" fill="#FF9D00" points="56.9830227 8.75829545 42.9430909 17.3660455 50.9463068 24.081"></polygon>
                </g>
                <circle id="Oval" fill="#FFD500" cx="34.5" cy="35.5" r="16.5"></circle>
            </g>
            <path d="M207.490517,168.051017 C212.271736,168.546356 216,172.587786 216,177.5 C216,182.746705 211.746705,187 206.5,187 C205.234811,187 204.027387,186.752678 202.923438,186.303743 C200.549113,188.001151 197.641203,189 194.5,189 C190.806392,189 187.435345,187.61895 184.875069,185.345059 C181.018251,188.266671 176.211546,190 171,190 C165.14156,190 159.794703,187.809658 155.733674,184.203222 C153.214347,186.553649 149.782336,188 146,188 C138.268014,188 132,181.955844 132,174.5 C132,167.044156 138.268014,161 146,161 C146.931816,161 147.842369,161.087784 148.723252,161.255243 C151.274676,151.332525 160.281036,144 171,144 C181.292234,144 190.00551,150.76032 192.941633,160.082763 C193.453593,160.028059 193.97352,160 194.5,160 C200.191413,160 205.116963,163.27905 207.490517,168.051017 Z" id="Combined-Shape" stroke="#A6A6A6" stroke-width="2.5" fill="#FFFFFF"></path>
        </g>
    </g>
</svg>